<svg width="300" height="300" viewBox="0 0 300 300" fill="none" xmlns="http://www.w3.org/2000/svg">
<path d="M61.2238 61.2243C12.2565 110.192 12.2565 189.583 61.2238 238.55C110.191 287.517 189.582 287.517 238.55 238.55C287.517 189.583 287.517 110.192 238.55 61.2243C189.582 12.2571 110.191 12.2571 61.2238 61.2243Z" fill="black" stroke="white" stroke-width="1.25"/>
<path d="M65.7139 66.2183C19.4426 112.49 19.4426 187.51 65.7139 233.781C111.985 280.053 187.006 280.053 233.277 233.781C279.548 187.51 279.548 112.49 233.277 66.2183C187.006 19.9471 111.985 19.9471 65.7139 66.2183Z" fill="black" stroke="white" stroke-width="1.25"/>
<mask id="mask0_17_38" style="mask-type:alpha" maskUnits="userSpaceOnUse" x="31" y="31" width="237" height="238">
<path d="M66.3493 66.7746C20.4425 112.681 20.4425 187.111 66.3493 233.017C112.256 278.924 186.686 278.924 232.592 233.017C278.499 187.111 278.499 112.681 232.592 66.7746C186.686 20.868 112.256 20.8679 66.3493 66.7746Z" fill="black" stroke="white" stroke-width="1.25"/>
</mask>
<g mask="url(#mask0_17_38)">
<path d="M48.9272 212.5C50.951 212.025 56.2129 211.786 61.0701 214.643C58.2129 197.5 77.499 181.072 97.8562 197.5C96.0702 186.429 107.856 176.43 119.285 184.643C119.285 177.5 127.499 175 131.427 181.429C140.713 176.072 146.784 152.786 146.784 31.072H154.284C154.284 81.4293 154.284 181.429 170.356 181.429C172.856 178.215 179.285 178.572 179.285 184.643C186.07 175 203.928 179.643 197.141 196.072C201.07 193.691 209.285 191.5 210.713 201.786C221.784 187.858 242.141 191.429 242.141 212.5C243.451 211.31 247.213 209.144 251.784 210.001" stroke="white"/>
<path d="M188.572 231.786C185.001 227.857 178.929 227.857 176.786 232.944C158.786 204.658 137.858 219.015 129.644 229.73C124.405 226.545 114.644 224.286 108.93 231.786" stroke="white" stroke-linecap="round"/>
<path d="M136.786 183.215C138.596 181.5 142.083 175.44 144.136 163.572" stroke="white" stroke-linecap="round"/>
<path d="M164.285 183.215C162.023 181.072 157.142 172.143 155.713 153.572" stroke="white" stroke-linecap="round"/>
<path d="M143.214 187.144C144.643 183.216 148.571 173.215 148.571 137.858" stroke="white" stroke-linecap="round"/>
<path d="M120.713 75.7143C121.108 75.7143 121.427 75.3945 121.427 75C121.427 74.6056 121.108 74.2858 120.713 74.2858C120.319 74.2858 119.999 74.6056 119.999 75C119.999 75.3945 120.319 75.7143 120.713 75.7143Z" fill="white"/>
<path d="M69.2862 109.286C69.6807 109.286 70.0005 108.966 70.0005 108.571C70.0005 108.177 69.6807 107.857 69.2862 107.857C68.8918 107.857 68.572 108.177 68.572 108.571C68.572 108.966 68.8918 109.286 69.2862 109.286Z" fill="white"/>
<path d="M239.286 167.143C239.681 167.143 240 166.824 240 166.429C240 166.035 239.681 165.715 239.286 165.715C238.892 165.715 238.572 166.035 238.572 166.429C238.572 166.824 238.892 167.143 239.286 167.143Z" fill="white"/>
<path d="M254.999 125.001C255.394 125.001 255.714 124.681 255.714 124.286C255.714 123.892 255.394 123.572 254.999 123.572C254.605 123.572 254.285 123.892 254.285 124.286C254.285 124.681 254.605 125.001 254.999 125.001Z" fill="white"/>
<path d="M182.857 109.286C183.252 109.286 183.572 108.966 183.572 108.571C183.572 108.177 183.252 107.857 182.857 107.857C182.463 107.857 182.143 108.177 182.143 108.571C182.143 108.966 182.463 109.286 182.857 109.286Z" fill="white"/>
<path d="M87.8571 167.143C88.2516 167.143 88.5714 166.824 88.5714 166.429C88.5714 166.035 88.2516 165.715 87.8571 165.715C87.4626 165.715 87.1429 166.035 87.1429 166.429C87.1429 166.824 87.4626 167.143 87.8571 167.143Z" fill="white"/>
<path d="M196.429 52.1439C196.824 52.1439 197.143 51.8241 197.143 51.4296C197.143 51.0351 196.824 50.7153 196.429 50.7153C196.035 50.7153 195.715 51.0351 195.715 51.4296C195.715 51.8241 196.035 52.1439 196.429 52.1439Z" fill="white"/>
<path d="M211.785 76.4285C211.982 76.4285 212.142 76.2686 212.142 76.0714C212.142 75.8741 211.982 75.7142 211.785 75.7142C211.588 75.7142 211.428 75.8741 211.428 76.0714C211.428 76.2686 211.588 76.4285 211.785 76.4285Z" fill="white"/>
<path d="M218.213 84.2869C218.41 84.2869 218.57 84.127 218.57 83.9298C218.57 83.7325 218.41 83.5726 218.213 83.5726C218.016 83.5726 217.856 83.7325 217.856 83.9298C217.856 84.127 218.016 84.2869 218.213 84.2869Z" fill="white"/>
<path d="M189.644 112.143C189.841 112.143 190.001 111.983 190.001 111.786C190.001 111.589 189.841 111.429 189.644 111.429C189.446 111.429 189.286 111.589 189.286 111.786C189.286 111.983 189.446 112.143 189.644 112.143Z" fill="white"/>
<path d="M161.784 58.572C161.981 58.572 162.141 58.4121 162.141 58.2148C162.141 58.0176 161.981 57.8577 161.784 57.8577C161.587 57.8577 161.427 58.0176 161.427 58.2148C161.427 58.4121 161.587 58.572 161.784 58.572Z" fill="white"/>
<path d="M137.501 100.001C137.698 100.001 137.858 99.8409 137.858 99.6436C137.858 99.4464 137.698 99.2865 137.501 99.2865C137.304 99.2865 137.144 99.4464 137.144 99.6436C137.144 99.8409 137.304 100.001 137.501 100.001Z" fill="white"/>
<path d="M96.0724 59.2864C96.2697 59.2864 96.4296 59.1265 96.4296 58.9293C96.4296 58.732 96.2697 58.5721 96.0724 58.5721C95.8752 58.5721 95.7153 58.732 95.7153 58.9293C95.7153 59.1265 95.8752 59.2864 96.0724 59.2864Z" fill="white"/>
<path d="M43.2143 144.286C43.4115 144.286 43.5714 144.126 43.5714 143.929C43.5714 143.732 43.4115 143.572 43.2143 143.572C43.017 143.572 42.8571 143.732 42.8571 143.929C42.8571 144.126 43.017 144.286 43.2143 144.286Z" fill="white"/>
<path d="M98.9276 161.428C99.1248 161.428 99.2847 161.268 99.2847 161.071C99.2847 160.874 99.1248 160.714 98.9276 160.714C98.7303 160.714 98.5704 160.874 98.5704 161.071C98.5704 161.268 98.7303 161.428 98.9276 161.428Z" fill="white"/>
<path d="M98.9276 109.286C99.1248 109.286 99.2847 109.126 99.2847 108.929C99.2847 108.732 99.1248 108.572 98.9276 108.572C98.7303 108.572 98.5704 108.732 98.5704 108.929C98.5704 109.126 98.7303 109.286 98.9276 109.286Z" fill="white"/>
<path d="M132.499 155.715C132.696 155.715 132.856 155.555 132.856 155.358C132.856 155.161 132.696 155.001 132.499 155.001C132.302 155.001 132.142 155.161 132.142 155.358C132.142 155.555 132.302 155.715 132.499 155.715Z" fill="white"/>
<path d="M195.356 166.429C195.553 166.429 195.713 166.269 195.713 166.072C195.713 165.875 195.553 165.715 195.356 165.715C195.159 165.715 194.999 165.875 194.999 166.072C194.999 166.269 195.159 166.429 195.356 166.429Z" fill="white"/>
<path d="M230.356 177.858C230.554 177.858 230.714 177.698 230.714 177.501C230.714 177.304 230.554 177.144 230.356 177.144C230.159 177.144 229.999 177.304 229.999 177.501C229.999 177.698 230.159 177.858 230.356 177.858Z" fill="white"/>
<path d="M224.644 171.429C224.841 171.429 225.001 171.269 225.001 171.072C225.001 170.874 224.841 170.714 224.644 170.714C224.447 170.714 224.287 170.874 224.287 171.072C224.287 171.269 224.447 171.429 224.644 171.429Z" fill="white"/>
<path d="M257.5 143.572C257.697 143.572 257.857 143.412 257.857 143.215C257.857 143.017 257.697 142.857 257.5 142.857C257.303 142.857 257.143 143.017 257.143 143.215C257.143 143.412 257.303 143.572 257.5 143.572Z" fill="white"/>
<path d="M214.643 129.285C214.84 129.285 215 129.126 215 128.928C215 128.731 214.84 128.571 214.643 128.571C214.445 128.571 214.285 128.731 214.285 128.928C214.285 129.126 214.445 129.285 214.643 129.285Z" fill="white"/>
</g>
</svg>
